<?xml version="1.0" encoding="UTF-8" standalone="no"?>
<!DOCTYPE svg PUBLIC "-//W3C//DTD SVG 1.1//EN" "http://www.w3.org/Graphics/SVG/1.1/DTD/svg11.dtd">
<svg width="100%" height="100%" viewBox="0 0 661 207" version="1.1" xmlns="http://www.w3.org/2000/svg" xmlns:xlink="http://www.w3.org/1999/xlink" xml:space="preserve" xmlns:serif="http://www.serif.com/" style="fill-rule:evenodd;clip-rule:evenodd;stroke-linejoin:round;stroke-miterlimit:2;">
    <g transform="matrix(1,0,0,1,-247.376261,-602.068731)">
        <g>
            <g transform="matrix(0.704926,0,0,0.756156,161.229916,184.740147)">
                <path d="M377.405,601.869L377.405,745.564C377.405,773.138 353.391,795.525 323.813,795.525L310.444,795.525L247.974,615.144L184.676,615.144L130.344,772.028C125.188,764.352 122.206,755.28 122.206,745.564L122.206,601.869C122.206,574.295 146.22,551.908 175.798,551.908L323.813,551.908C353.391,551.908 377.405,574.295 377.405,601.869ZM377.405,672.093C377.405,661.098 374.825,651.349 369.665,642.846C364.505,634.342 356.766,627.599 346.446,622.617C336.127,617.635 323.043,615.144 307.196,615.144L263.384,615.144L274.272,646.582L304.432,646.582C315.304,646.582 323.136,648.815 327.927,653.282C332.718,657.749 335.113,664.019 335.113,672.093C335.113,679.824 332.718,686.008 327.927,690.647C323.136,695.285 315.304,697.604 304.432,697.604L291.942,697.604L302.651,728.526L307.196,728.526C323.412,728.526 336.726,725.864 347.137,720.538C357.549,715.213 365.196,708.255 370.08,699.666C374.963,691.076 377.405,681.885 377.405,672.093ZM237.056,564.572C225.614,564.572 216.325,573.232 216.325,583.898C216.325,594.565 225.614,603.225 237.056,603.225C248.498,603.225 257.787,594.565 257.787,583.898C257.787,573.232 248.498,564.572 237.056,564.572ZM266.494,795.525L175.798,795.525C172.32,795.525 168.918,795.215 165.624,794.624L215.91,642.201L216.739,642.201L266.494,795.525Z" style="fill:rgb(246,2,9);"/>
            </g>
            <g transform="matrix(2.152992,0,0,2.152992,-288.589752,-851.085988)">
                <path d="M343.804,716.27L356.004,681.27L362.004,681.27L374.004,716.27L369.554,716.27L359.054,684.92L358.904,684.92L348.204,716.27L343.804,716.27ZM349.704,705.82L350.904,702.42L366.754,702.42L367.954,705.82L349.704,705.82Z" style="fill-rule:nonzero;"/>
                <rect x="374.654" y="681.02" width="4.2" height="35.25" style="fill-rule:nonzero;"/>
                <path d="M392.654,716.87C390.287,716.87 388.187,716.328 386.354,715.245C384.521,714.162 383.079,712.645 382.029,710.695C380.979,708.745 380.454,706.47 380.454,703.87C380.454,701.237 380.971,698.953 382.004,697.02C383.037,695.087 384.479,693.578 386.329,692.495C388.179,691.412 390.321,690.87 392.754,690.87C395.187,690.87 397.271,691.412 399.004,692.495C400.737,693.578 402.071,694.995 403.004,696.745C403.937,698.495 404.404,700.403 404.404,702.47L404.404,703.545C404.404,703.928 404.387,704.353 404.354,704.82L383.604,704.82L383.604,701.57L400.254,701.57C400.154,699.237 399.396,697.42 397.979,696.12C396.562,694.82 394.787,694.17 392.654,694.17C391.221,694.17 389.887,694.487 388.654,695.12C387.421,695.753 386.429,696.703 385.679,697.97C384.929,699.237 384.554,700.82 384.554,702.72L384.554,704.12C384.554,706.187 384.937,707.903 385.704,709.27C386.471,710.637 387.479,711.662 388.729,712.345C389.979,713.028 391.287,713.37 392.654,713.37C394.387,713.37 395.837,712.97 397.004,712.17C398.171,711.37 399.021,710.27 399.554,708.87L403.704,708.87C403.271,710.403 402.554,711.77 401.554,712.97C400.554,714.17 399.312,715.12 397.829,715.82C396.346,716.52 394.621,716.87 392.654,716.87Z" style="fill-rule:nonzero;"/>
                <path d="M414.504,716.27C413.004,716.27 411.704,716.037 410.604,715.57C409.504,715.103 408.662,714.312 408.079,713.195C407.496,712.078 407.204,710.57 407.204,708.67L407.204,694.62L402.904,694.62L402.904,691.47L407.204,691.47L407.704,685.52L411.404,685.52L411.404,691.47L418.704,691.47L418.704,694.62L411.404,694.62L411.404,708.67C411.404,710.37 411.721,711.503 412.354,712.07C412.987,712.637 414.104,712.92 415.704,712.92L418.304,712.92L418.304,716.27L414.504,716.27Z" style="fill-rule:nonzero;"/>
            </g>
            <g transform="matrix(0.736634,0,0,0.736634,375.768528,280.787139)">
                <path d="M345.854,716.27L345.854,681.27L357.354,681.27C360.121,681.27 362.379,681.72 364.129,682.62C365.879,683.52 367.179,684.737 368.029,686.27C368.879,687.803 369.304,689.537 369.304,691.47C369.304,693.37 368.887,695.087 368.054,696.62C367.221,698.153 365.921,699.378 364.154,700.295C362.387,701.212 360.121,701.67 357.354,701.67L350.054,701.67L350.054,716.27L345.854,716.27ZM350.054,698.12L357.254,698.12C360.021,698.12 362.004,697.52 363.204,696.32C364.404,695.12 365.004,693.503 365.004,691.47C365.004,689.337 364.404,687.687 363.204,686.52C362.004,685.353 360.021,684.77 357.254,684.77L350.054,684.77L350.054,698.12Z" style="fill-rule:nonzero;"/>
                <path d="M377.104,716.27L377.104,681.27L388.404,681.27C391.137,681.27 393.371,681.728 395.104,682.645C396.837,683.562 398.121,684.787 398.954,686.32C399.787,687.853 400.204,689.587 400.204,691.52C400.204,693.387 399.779,695.103 398.929,696.67C398.079,698.237 396.771,699.487 395.004,700.42C393.237,701.353 390.971,701.82 388.204,701.82L381.304,701.82L381.304,716.27L377.104,716.27ZM395.604,716.27L387.904,700.62L392.604,700.62L400.554,716.27L395.604,716.27ZM381.304,698.52L388.104,698.52C390.771,698.52 392.729,697.87 393.979,696.57C395.229,695.27 395.854,693.603 395.854,691.57C395.854,689.503 395.246,687.862 394.029,686.645C392.812,685.428 390.821,684.82 388.054,684.82L381.304,684.82L381.304,698.52Z" style="fill-rule:nonzero;"/>
                <rect x="408.354" y="681.27" width="4.2" height="35" style="fill-rule:nonzero;"/>
                <path d="M421.804,716.27L421.804,681.27L427.354,681.27L444.504,711.02L444.654,711.02L444.654,681.27L448.854,681.27L448.854,716.27L443.304,716.27L426.154,686.52L426.004,686.52L426.004,716.27L421.804,716.27Z" style="fill-rule:nonzero;"/>
                <path d="M466.504,716.27L466.504,684.72L456.054,684.72L456.054,681.27L481.154,681.27L481.154,684.72L470.704,684.72L470.704,716.27L466.504,716.27Z" style="fill-rule:nonzero;"/>
                <path d="M499.004,716.87C496.437,716.87 494.204,716.403 492.304,715.47C490.404,714.537 488.937,713.237 487.904,711.57C486.871,709.903 486.354,707.97 486.354,705.77L490.754,705.77C490.754,707.137 491.054,708.395 491.654,709.545C492.254,710.695 493.171,711.612 494.404,712.295C495.637,712.978 497.187,713.32 499.054,713.32C500.554,713.32 501.871,713.095 503.004,712.645C504.137,712.195 505.021,711.528 505.654,710.645C506.287,709.762 506.604,708.687 506.604,707.42C506.604,706.12 506.312,705.045 505.729,704.195C505.146,703.345 504.346,702.637 503.329,702.07C502.312,701.503 501.187,701.012 499.954,700.595C498.721,700.178 497.454,699.753 496.154,699.32C493.187,698.287 491.012,697.028 489.629,695.545C488.246,694.062 487.554,692.203 487.554,689.97C487.554,688.17 487.996,686.57 488.879,685.17C489.762,683.77 491.029,682.67 492.679,681.87C494.329,681.07 496.287,680.67 498.554,680.67C500.787,680.67 502.729,681.087 504.379,681.92C506.029,682.753 507.321,683.895 508.254,685.345C509.187,686.795 509.654,688.47 509.654,690.37L505.254,690.37C505.254,689.203 504.987,688.153 504.454,687.22C503.921,686.287 503.146,685.537 502.129,684.97C501.112,684.403 499.821,684.12 498.254,684.12C497.021,684.12 495.912,684.312 494.929,684.695C493.946,685.078 493.179,685.67 492.629,686.47C492.079,687.27 491.804,688.303 491.804,689.57C491.804,690.637 492.021,691.52 492.454,692.22C492.887,692.92 493.537,693.528 494.404,694.045C495.271,694.562 496.329,695.053 497.579,695.52C498.829,695.987 500.254,696.503 501.854,697.07C503.554,697.67 505.079,698.378 506.429,699.195C507.779,700.012 508.837,701.037 509.604,702.27C510.371,703.503 510.754,705.087 510.754,707.02C510.754,708.687 510.321,710.278 509.454,711.795C508.587,713.312 507.287,714.537 505.554,715.47C503.821,716.403 501.637,716.87 499.004,716.87Z" style="fill-rule:nonzero;"/>
                <path d="M533.654,716.27L533.654,681.27L537.854,681.27L537.854,712.92L554.154,712.92L554.154,716.27L533.654,716.27Z" style="fill-rule:nonzero;"/>
                <rect x="561.854" y="681.27" width="4.2" height="35" style="fill-rule:nonzero;"/>
                <path d="M575.304,716.27L575.304,681.27L581.204,681.27L592.754,707.22L592.904,707.22L604.404,681.27L610.254,681.27L610.254,716.27L606.054,716.27L606.054,687.92L605.904,687.92L595.404,711.27L590.204,711.27L579.654,687.92L579.504,687.92L579.504,716.27L575.304,716.27Z" style="fill-rule:nonzero;"/>
                <rect x="619.504" y="681.27" width="4.2" height="35" style="fill-rule:nonzero;"/>
                <path d="M641.354,716.27L641.354,684.72L630.904,684.72L630.904,681.27L656.004,681.27L656.004,684.72L645.554,684.72L645.554,716.27L641.354,716.27Z" style="fill-rule:nonzero;"/>
                <path d="M663.154,716.27L663.154,681.27L684.804,681.27L684.804,684.72L667.354,684.72L667.354,696.92L683.304,696.92L683.304,700.32L667.354,700.32L667.354,712.82L684.804,712.82L684.804,716.27L663.154,716.27Z" style="fill-rule:nonzero;"/>
                <path d="M693.254,716.27L693.254,681.27L704.004,681.27C708.104,681.27 711.487,681.978 714.154,683.395C716.821,684.812 718.796,686.828 720.079,689.445C721.362,692.062 722.004,695.203 722.004,698.87C722.004,702.47 721.362,705.57 720.079,708.17C718.796,710.77 716.821,712.77 714.154,714.17C711.487,715.57 708.104,716.27 704.004,716.27L693.254,716.27ZM697.454,712.77L703.904,712.77C707.304,712.77 710.012,712.212 712.029,711.095C714.046,709.978 715.487,708.378 716.354,706.295C717.221,704.212 717.654,701.737 717.654,698.87C717.654,695.937 717.221,693.42 716.354,691.32C715.487,689.22 714.046,687.603 712.029,686.47C710.012,685.337 707.304,684.77 703.904,684.77L697.454,684.77L697.454,712.77Z" style="fill-rule:nonzero;"/>
            </g>
            <g transform="matrix(2.152992,0,0,2.152992,-293.003386,-771.086821)">
                <rect x="345.854" y="681.27" width="4.2" height="35" style="fill-rule:nonzero;"/>
                <path d="M352.554,716.27L352.554,691.47L356.304,691.47L356.654,695.52L356.804,695.52C357.671,694.087 358.812,692.953 360.229,692.12C361.646,691.287 363.337,690.87 365.304,690.87C367.204,690.87 368.871,691.262 370.304,692.045C371.737,692.828 372.846,694.028 373.629,695.645C374.412,697.262 374.804,699.303 374.804,701.77L374.804,716.27L370.604,716.27L370.604,702.22C370.604,699.653 370.054,697.72 368.954,696.42C367.854,695.12 366.271,694.47 364.204,694.47C362.771,694.47 361.496,694.82 360.379,695.52C359.262,696.22 358.379,697.228 357.729,698.545C357.079,699.862 356.754,701.487 356.754,703.42L356.754,716.27L352.554,716.27Z" style="fill-rule:nonzero;"/>
                <path d="M386.304,716.87C384.337,716.87 382.571,716.528 381.004,715.845C379.437,715.162 378.179,714.195 377.229,712.945C376.279,711.695 375.687,710.22 375.454,708.52L379.754,708.52C379.954,709.353 380.304,710.153 380.804,710.92C381.304,711.687 382.012,712.312 382.929,712.795C383.846,713.278 384.987,713.52 386.354,713.52C387.554,713.52 388.537,713.345 389.304,712.995C390.071,712.645 390.637,712.178 391.004,711.595C391.371,711.012 391.554,710.387 391.554,709.72C391.554,708.82 391.312,708.103 390.829,707.57C390.346,707.037 389.629,706.587 388.679,706.22C387.729,705.853 386.604,705.503 385.304,705.17C384.304,704.903 383.287,704.595 382.254,704.245C381.221,703.895 380.279,703.47 379.429,702.97C378.579,702.47 377.896,701.82 377.379,701.02C376.862,700.22 376.604,699.22 376.604,698.02C376.604,696.687 376.971,695.478 377.704,694.395C378.437,693.312 379.479,692.453 380.829,691.82C382.179,691.187 383.771,690.87 385.604,690.87C388.237,690.87 390.396,691.52 392.079,692.82C393.762,694.12 394.737,696.003 395.004,698.47L390.854,698.47C390.721,697.103 390.196,696.045 389.279,695.295C388.362,694.545 387.121,694.17 385.554,694.17C384.021,694.17 382.846,694.503 382.029,695.17C381.212,695.837 380.804,696.67 380.804,697.67C380.804,698.337 381.012,698.895 381.429,699.345C381.846,699.795 382.496,700.178 383.379,700.495C384.262,700.812 385.371,701.17 386.704,701.57C388.237,702.003 389.696,702.487 391.079,703.02C392.462,703.553 393.596,704.287 394.479,705.22C395.362,706.153 395.804,707.437 395.804,709.07C395.837,710.57 395.462,711.912 394.679,713.095C393.896,714.278 392.796,715.203 391.379,715.87C389.962,716.537 388.271,716.87 386.304,716.87Z" style="fill-rule:nonzero;"/>
                <path d="M397.254,726.52L397.254,691.47L400.854,691.47L401.254,696.07L401.404,696.07C402.071,694.97 402.879,694.037 403.829,693.27C404.779,692.503 405.862,691.912 407.079,691.495C408.296,691.078 409.587,690.87 410.954,690.87C413.387,690.87 415.487,691.445 417.254,692.595C419.021,693.745 420.387,695.303 421.354,697.27C422.321,699.237 422.804,701.437 422.804,703.87C422.804,706.337 422.321,708.553 421.354,710.52C420.387,712.487 418.996,714.037 417.179,715.17C415.362,716.303 413.154,716.87 410.554,716.87C408.321,716.87 406.454,716.403 404.954,715.47C403.454,714.537 402.287,713.437 401.454,712.17L401.454,726.52L397.254,726.52ZM410.104,713.22C411.804,713.22 413.296,712.828 414.579,712.045C415.862,711.262 416.846,710.17 417.529,708.77C418.212,707.37 418.554,705.737 418.554,703.87C418.554,702.003 418.212,700.37 417.529,698.97C416.846,697.57 415.862,696.478 414.579,695.695C413.296,694.912 411.804,694.52 410.104,694.52C408.371,694.52 406.862,694.912 405.579,695.695C404.296,696.478 403.304,697.57 402.604,698.97C401.904,700.37 401.554,702.003 401.554,703.87C401.554,705.737 401.904,707.37 402.604,708.77C403.304,710.17 404.296,711.262 405.579,712.045C406.862,712.828 408.371,713.22 410.104,713.22Z" style="fill-rule:nonzero;"/>
                <path d="M424.604,716.27L424.604,691.47L428.804,691.47L428.804,716.27L424.604,716.27ZM426.704,686.37C425.871,686.37 425.179,686.095 424.629,685.545C424.079,684.995 423.804,684.287 423.804,683.42C423.804,682.62 424.079,681.945 424.629,681.395C425.179,680.845 425.871,680.57 426.704,680.57C427.504,680.57 428.187,680.845 428.754,681.395C429.321,681.945 429.604,682.637 429.604,683.47C429.604,684.27 429.321,684.953 428.754,685.52C428.187,686.087 427.504,686.37 426.704,686.37Z" style="fill-rule:nonzero;"/>
                <path d="M431.754,716.27L431.754,691.47L435.504,691.47L435.904,696.72L436.054,696.72C436.787,695.087 437.562,693.853 438.379,693.02C439.196,692.187 440.154,691.62 441.254,691.32C442.354,691.02 443.671,690.87 445.204,690.87L445.204,695.27L444.104,695.27C442.837,695.27 441.696,695.437 440.679,695.77C439.662,696.103 438.804,696.595 438.104,697.245C437.404,697.895 436.871,698.745 436.504,699.795C436.137,700.845 435.954,702.087 435.954,703.52L435.954,716.27L431.754,716.27Z" style="fill-rule:nonzero;"/>
                <path d="M453.954,716.87C451.954,716.87 450.279,716.52 448.929,715.82C447.579,715.12 446.579,714.187 445.929,713.02C445.279,711.853 444.954,710.587 444.954,709.22C444.954,707.52 445.396,706.087 446.279,704.92C447.162,703.753 448.412,702.862 450.029,702.245C451.646,701.628 453.554,701.32 455.754,701.32L462.454,701.32C462.454,699.72 462.204,698.387 461.704,697.32C461.204,696.253 460.487,695.462 459.554,694.945C458.621,694.428 457.504,694.17 456.204,694.17C454.571,694.17 453.154,694.587 451.954,695.42C450.754,696.253 450.021,697.52 449.754,699.22L445.454,699.22C445.654,697.42 446.254,695.903 447.254,694.67C448.254,693.437 449.529,692.495 451.079,691.845C452.629,691.195 454.337,690.87 456.204,690.87C458.571,690.87 460.529,691.295 462.079,692.145C463.629,692.995 464.779,694.178 465.529,695.695C466.279,697.212 466.654,698.987 466.654,701.02L466.654,716.27L463.104,716.27L462.754,711.97L462.604,711.97C462.171,712.737 461.654,713.42 461.054,714.02C460.454,714.62 459.796,715.128 459.079,715.545C458.362,715.962 457.571,716.287 456.704,716.52C455.837,716.753 454.921,716.87 453.954,716.87ZM454.654,713.32C455.921,713.32 457.029,713.078 457.979,712.595C458.929,712.112 459.737,711.453 460.404,710.62C461.071,709.787 461.579,708.845 461.929,707.795C462.279,706.745 462.454,705.67 462.454,704.57L456.104,704.57C454.471,704.57 453.154,704.762 452.154,705.145C451.154,705.528 450.437,706.053 450.004,706.72C449.571,707.387 449.354,708.153 449.354,709.02C449.354,709.887 449.562,710.645 449.979,711.295C450.396,711.945 451.004,712.445 451.804,712.795C452.604,713.145 453.554,713.32 454.654,713.32Z" style="fill-rule:nonzero;"/>
                <path d="M477.704,716.27C476.204,716.27 474.904,716.037 473.804,715.57C472.704,715.103 471.862,714.312 471.279,713.195C470.696,712.078 470.404,710.57 470.404,708.67L470.404,694.62L466.104,694.62L466.104,691.47L470.404,691.47L470.904,685.52L474.604,685.52L474.604,691.47L481.904,691.47L481.904,694.62L474.604,694.62L474.604,708.67C474.604,710.37 474.921,711.503 475.554,712.07C476.187,712.637 477.304,712.92 478.904,712.92L481.504,712.92L481.504,716.27L477.704,716.27Z" style="fill-rule:nonzero;"/>
                <path d="M483.154,716.27L483.154,691.47L487.354,691.47L487.354,716.27L483.154,716.27ZM485.254,686.37C484.421,686.37 483.729,686.095 483.179,685.545C482.629,684.995 482.354,684.287 482.354,683.42C482.354,682.62 482.629,681.945 483.179,681.395C483.729,680.845 484.421,680.57 485.254,680.57C486.054,680.57 486.737,680.845 487.304,681.395C487.871,681.945 488.154,682.637 488.154,683.47C488.154,684.27 487.871,684.953 487.304,685.52C486.737,686.087 486.054,686.37 485.254,686.37Z" style="fill-rule:nonzero;"/>
                <path d="M501.854,716.87C499.521,716.87 497.421,716.337 495.554,715.27C493.687,714.203 492.212,712.695 491.129,710.745C490.046,708.795 489.504,706.503 489.504,703.87C489.504,701.237 490.054,698.945 491.154,696.995C492.254,695.045 493.746,693.537 495.629,692.47C497.512,691.403 499.621,690.87 501.954,690.87C504.287,690.87 506.387,691.403 508.254,692.47C510.121,693.537 511.596,695.045 512.679,696.995C513.762,698.945 514.304,701.237 514.304,703.87C514.304,706.503 513.754,708.795 512.654,710.745C511.554,712.695 510.062,714.203 508.179,715.27C506.296,716.337 504.187,716.87 501.854,716.87ZM501.854,713.52C503.287,713.52 504.621,713.162 505.854,712.445C507.087,711.728 508.087,710.662 508.854,709.245C509.621,707.828 510.004,706.037 510.004,703.87C510.004,701.703 509.629,699.903 508.879,698.47C508.129,697.037 507.137,695.97 505.904,695.27C504.671,694.57 503.354,694.22 501.954,694.22C500.554,694.22 499.229,694.57 497.979,695.27C496.729,695.97 495.721,697.037 494.954,698.47C494.187,699.903 493.804,701.703 493.804,703.87C493.804,706.037 494.187,707.828 494.954,709.245C495.721,710.662 496.712,711.728 497.929,712.445C499.146,713.162 500.454,713.52 501.854,713.52Z" style="fill-rule:nonzero;"/>
                <path d="M515.704,716.27L515.704,691.47L519.454,691.47L519.804,695.52L519.954,695.52C520.821,694.087 521.962,692.953 523.379,692.12C524.796,691.287 526.487,690.87 528.454,690.87C530.354,690.87 532.021,691.262 533.454,692.045C534.887,692.828 535.996,694.028 536.779,695.645C537.562,697.262 537.954,699.303 537.954,701.77L537.954,716.27L533.754,716.27L533.754,702.22C533.754,699.653 533.204,697.72 532.104,696.42C531.004,695.12 529.421,694.47 527.354,694.47C525.921,694.47 524.646,694.82 523.529,695.52C522.412,696.22 521.529,697.228 520.879,698.545C520.229,699.862 519.904,701.487 519.904,703.42L519.904,716.27L515.704,716.27Z" style="fill-rule:nonzero;"/>
                <path d="M538.904,716.27L538.904,713.02L552.854,694.77L539.154,694.77L539.154,691.47L557.404,691.47L557.404,694.72L543.454,712.97L557.654,712.97L557.654,716.27L538.904,716.27Z" style="fill-rule:nonzero;"/>
            </g>
        </g>
    </g>
</svg>
