<?xml version="1.0" encoding="UTF-8" standalone="no"?>
<!DOCTYPE svg PUBLIC "-//W3C//DTD SVG 1.1//EN" "http://www.w3.org/Graphics/SVG/1.1/DTD/svg11.dtd">
<svg width="100%" height="100%" viewBox="0 0 1245 353" version="1.1" xmlns="http://www.w3.org/2000/svg" xmlns:xlink="http://www.w3.org/1999/xlink" xml:space="preserve" xmlns:serif="http://www.serif.com/" style="fill-rule:evenodd;clip-rule:evenodd;stroke-linejoin:round;stroke-miterlimit:2;">
    <g transform="matrix(1,0,0,1,-1835.878425,-1018.048663)">
        <g transform="matrix(1,0,0,1,-0.333333,0)">
            <g transform="matrix(2.720384,0,0,2.720384,1787.649756,961.445874)">
                <path d="M170.785,67.011C175.469,89.9 160.711,112.252 137.822,116.936C114.933,121.621 92.581,106.863 87.897,83.974C83.213,61.085 97.97,38.733 120.859,34.049C143.748,29.364 166.1,44.122 170.785,67.011Z" style="fill:rgb(255,255,0);fill-rule:nonzero;"/>
            </g>
            <g transform="matrix(2.720384,0,0,2.720384,1787.649756,961.445874)">
                <path d="M112.731,26.947C95.188,32.925 82.572,47.827 79.033,65.368C69.83,61.26 59.275,59.896 48.646,62.071C42.192,63.392 36.276,65.902 31.091,69.326C34.403,46.366 51.734,26.886 75.768,21.967C88.81,19.298 101.721,21.348 112.731,26.947ZM106.742,121.552C110.062,123.184 113.567,124.463 117.198,125.35C112.871,128.066 108.115,130.228 103.011,131.716C104.618,128.491 105.875,125.084 106.742,121.552Z" style="fill:rgb(0,115,255);fill-rule:nonzero;"/>
            </g>
            <g transform="matrix(2.720384,0,0,2.720384,1787.649756,961.445874)">
                <path d="M108.052,145.45C103.098,146.336 98.183,146.046 93.588,144.769C94.352,144.008 95.091,143.223 95.802,142.416C98.662,139.175 101.087,135.576 103.011,131.716C104.618,128.491 105.875,125.084 106.742,121.552C110.062,123.184 113.567,124.463 117.198,125.35C121.42,126.381 125.812,126.883 130.284,126.795C130.915,126.783 131.547,126.759 132.181,126.723C130.779,129.711 128.962,132.474 126.789,134.921C122.209,140.076 116.048,143.824 108.858,145.295C108.589,145.35 108.32,145.402 108.052,145.45Z" style="fill-rule:nonzero;"/>
            </g>
            <g transform="matrix(2.720384,0,0,2.720384,1787.649756,961.445874)">
                <path d="M18.663,118.331C16.676,108.623 18.427,99.006 22.938,90.94C24.973,87.3 27.571,83.976 30.64,81.102C35.975,76.106 42.735,72.468 50.451,70.889L50.451,70.889C60.238,68.886 69.914,70.534 78.031,74.893C78.076,74.917 78.122,74.942 78.168,74.967C78.122,74.998 78.075,75.029 78.029,75.061C78.003,78.586 78.342,82.168 79.076,85.76C79.077,85.766 79.078,85.772 79.08,85.778C81.701,98.585 88.882,109.293 98.585,116.554C97.522,122.863 94.947,128.784 91.172,133.853C89.278,136.396 87.082,138.725 84.622,140.781C83.774,141.49 82.894,142.167 81.985,142.808C80.26,144.025 78.429,145.117 76.501,146.066C73.41,147.589 70.072,148.747 66.533,149.471L66.532,149.471C44.535,153.972 23.104,140.031 18.663,118.331Z" style="fill:rgb(255,0,255);fill-rule:nonzero;"/>
            </g>
            <g transform="matrix(2.720384,0,0,2.720384,1787.649756,961.445874)">
                <path d="M136.042,33.712C152.917,36.422 167.155,49.275 170.785,67.011C175.006,87.636 163.44,107.826 144.364,115.044C163.44,107.825 175.006,87.636 170.784,67.011C167.155,49.275 152.917,36.422 136.042,33.712ZM78.031,74.893C78.076,74.917 78.122,74.942 78.168,74.967C78.122,74.998 78.075,75.029 78.029,75.061C78.03,75.005 78.03,74.949 78.031,74.893Z" style="fill:white;fill-rule:nonzero;"/>
            </g>
            <g transform="matrix(2.720384,0,0,2.720384,1787.649756,961.445874)">
                <path d="M277.477,77.622C275.557,77.622 273.893,77.323 272.485,76.726C271.077,76.128 269.989,75.126 269.221,73.718C268.495,72.267 268.133,70.326 268.133,67.894L268.133,49.91L262.501,49.91L262.501,45.366L268.133,45.366L268.837,37.558L273.509,37.558L273.509,45.366L282.853,45.366L282.853,49.91L273.509,49.91L273.509,67.894C273.509,69.899 273.914,71.264 274.725,71.99C275.535,72.672 276.965,73.014 279.013,73.014L282.469,73.014L282.469,77.622L277.477,77.622Z" style="fill:white;fill-rule:nonzero;"/>
            </g>
            <g transform="matrix(2.720384,0,0,2.720384,1787.649756,961.445874)">
                <path d="M247.476,78.39C244.447,78.39 241.759,77.686 239.412,76.278C237.108,74.87 235.295,72.907 233.972,70.39C232.65,67.83 231.988,64.864 231.988,61.494C231.988,58.08 232.628,55.115 233.908,52.598C235.231,50.08 237.066,48.118 239.412,46.71C241.802,45.302 244.532,44.598 247.604,44.598C250.762,44.598 253.428,45.302 255.604,46.71C257.823,48.118 259.508,49.974 260.66,52.278C261.855,54.539 262.452,57.035 262.452,59.766L262.452,61.11C262.452,61.579 262.431,62.112 262.388,62.71L236.02,62.71L236.02,58.55L257.204,58.55C257.076,55.606 256.095,53.302 254.26,51.638C252.468,49.974 250.207,49.142 247.476,49.142C245.642,49.142 243.935,49.568 242.356,50.422C240.82,51.232 239.583,52.448 238.644,54.07C237.706,55.648 237.236,57.632 237.236,60.022L237.236,61.814C237.236,64.459 237.706,66.678 238.644,68.47C239.626,70.262 240.884,71.606 242.42,72.502C243.999,73.398 245.684,73.846 247.476,73.846C249.738,73.846 251.594,73.355 253.044,72.374C254.538,71.35 255.604,69.984 256.244,68.278L261.556,68.278C261.044,70.198 260.148,71.926 258.868,73.462C257.588,74.998 255.988,76.214 254.068,77.11C252.191,77.963 249.994,78.39 247.476,78.39Z" style="fill:white;fill-rule:nonzero;"/>
            </g>
            <g transform="matrix(2.720384,0,0,2.720384,1787.649756,961.445874)">
                <rect x="222.922" y="31.542" width="5.376" height="46.08" style="fill:white;fill-rule:nonzero;"/>
            </g>
            <g transform="matrix(2.720384,0,0,2.720384,1787.649756,961.445874)">
                <path d="M181.702,77.622L198.214,32.822L203.91,32.822L220.358,77.622L214.662,77.622L201.03,39.542L187.334,77.622L181.702,77.622ZM189.254,66.102L190.79,61.75L211.078,61.75L212.614,66.102L189.254,66.102Z" style="fill:white;fill-rule:nonzero;"/>
            </g>
            <g transform="matrix(2.720384,0,0,2.720384,1787.649756,961.445874)">
                <path d="M450.909,128.622L450.909,124.206L468.765,100.846L451.229,100.846L451.229,96.366L474.909,96.366L474.909,100.782L456.989,124.142L475.229,124.142L475.229,128.622L450.909,128.622Z" style="fill:white;fill-rule:nonzero;"/>
            </g>
            <g transform="matrix(2.720384,0,0,2.720384,1787.649756,961.445874)">
                <path d="M420.175,128.622L420.175,96.366L425.039,96.366L425.295,101.998C426.319,99.992 427.769,98.435 429.647,97.326C431.567,96.174 433.743,95.598 436.175,95.598C438.692,95.598 440.868,96.11 442.703,97.134C444.537,98.115 445.967,99.63 446.991,101.678C448.015,103.683 448.527,106.243 448.527,109.358L448.527,128.622L443.151,128.622L443.151,109.934C443.151,106.691 442.425,104.259 440.975,102.638C439.567,101.016 437.561,100.206 434.959,100.206C433.167,100.206 431.567,100.654 430.159,101.55C428.751,102.403 427.62,103.662 426.767,105.326C425.956,106.947 425.551,108.974 425.551,111.406L425.551,128.622L420.175,128.622Z" style="fill:white;fill-rule:nonzero;"/>
            </g>
            <g transform="matrix(2.720384,0,0,2.720384,1787.649756,961.445874)">
                <path d="M400.477,129.39C397.491,129.39 394.803,128.707 392.413,127.342C390.024,125.934 388.147,123.971 386.781,121.454C385.416,118.894 384.733,115.928 384.733,112.558C384.733,109.102 385.416,106.115 386.781,103.598C388.189,101.038 390.088,99.075 392.477,97.71C394.909,96.302 397.619,95.598 400.605,95.598C403.677,95.598 406.387,96.302 408.733,97.71C411.123,99.075 413,101.038 414.365,103.598C415.773,106.115 416.477,109.08 416.477,112.494C416.477,115.907 415.773,118.894 414.365,121.454C412.957,123.971 411.059,125.934 408.669,127.342C406.28,128.707 403.549,129.39 400.477,129.39ZM400.541,124.782C402.376,124.782 404.083,124.334 405.661,123.438C407.24,122.499 408.52,121.112 409.501,119.278C410.483,117.443 410.973,115.182 410.973,112.494C410.973,109.763 410.483,107.502 409.501,105.71C408.563,103.875 407.304,102.51 405.725,101.614C404.189,100.675 402.483,100.206 400.605,100.206C398.813,100.206 397.107,100.675 395.485,101.614C393.907,102.51 392.627,103.875 391.645,105.71C390.707,107.502 390.237,109.763 390.237,112.494C390.237,115.182 390.707,117.443 391.645,119.278C392.627,121.112 393.885,122.499 395.421,123.438C397,124.334 398.707,124.782 400.541,124.782Z" style="fill:white;fill-rule:nonzero;"/>
            </g>
            <g transform="matrix(2.720384,0,0,2.720384,1787.649756,961.445874)">
                <path d="M375.054,128.622L375.054,96.366L380.43,96.366L380.43,128.622L375.054,128.622ZM377.742,89.518C376.676,89.518 375.78,89.176 375.054,88.494C374.372,87.768 374.03,86.872 374.03,85.806C374.03,84.739 374.372,83.886 375.054,83.246C375.78,82.563 376.676,82.222 377.742,82.222C378.766,82.222 379.641,82.563 380.366,83.246C381.092,83.886 381.454,84.739 381.454,85.806C381.454,86.872 381.092,87.768 380.366,88.494C379.641,89.176 378.766,89.518 377.742,89.518Z" style="fill:white;fill-rule:nonzero;"/>
            </g>
            <g transform="matrix(2.720384,0,0,2.720384,1787.649756,961.445874)">
                <path d="M365.992,128.622C364.072,128.622 362.408,128.323 361,127.726C359.592,127.128 358.504,126.126 357.736,124.718C357.01,123.267 356.648,121.326 356.648,118.894L356.648,100.91L351.016,100.91L351.016,96.366L356.648,96.366L357.352,88.558L362.024,88.558L362.024,96.366L371.368,96.366L371.368,100.91L362.024,100.91L362.024,118.894C362.024,120.899 362.429,122.264 363.24,122.99C364.05,123.672 365.48,124.014 367.528,124.014L370.984,124.014L370.984,128.622L365.992,128.622Z" style="fill:white;fill-rule:nonzero;"/>
            </g>
            <g transform="matrix(2.720384,0,0,2.720384,1787.649756,961.445874)">
                <path d="M333.718,129.39C331.116,129.39 328.94,128.942 327.19,128.046C325.441,127.107 324.14,125.891 323.286,124.398C322.433,122.862 322.006,121.198 322.006,119.406C322.006,117.23 322.561,115.395 323.67,113.902C324.822,112.366 326.422,111.214 328.47,110.446C330.561,109.635 333.014,109.23 335.83,109.23L344.342,109.23C344.342,107.224 344.022,105.56 343.382,104.238C342.785,102.872 341.889,101.848 340.694,101.166C339.542,100.483 338.092,100.142 336.342,100.142C334.294,100.142 332.524,100.654 331.03,101.678C329.537,102.702 328.62,104.216 328.278,106.222L322.774,106.222C323.03,103.918 323.798,101.998 325.078,100.462C326.401,98.883 328.065,97.688 330.07,96.878C332.076,96.024 334.166,95.598 336.342,95.598C339.329,95.598 341.804,96.152 343.766,97.262C345.772,98.328 347.265,99.843 348.246,101.806C349.228,103.726 349.718,106.008 349.718,108.654L349.718,128.622L344.918,128.622L344.598,122.926C344.172,123.822 343.617,124.675 342.934,125.486C342.294,126.254 341.526,126.936 340.63,127.534C339.734,128.088 338.71,128.536 337.558,128.878C336.449,129.219 335.169,129.39 333.718,129.39ZM334.55,124.846C336.044,124.846 337.388,124.547 338.582,123.95C339.82,123.31 340.865,122.456 341.718,121.39C342.572,120.28 343.212,119.064 343.638,117.742C344.108,116.419 344.342,115.032 344.342,113.582L344.342,113.39L336.278,113.39C334.188,113.39 332.502,113.646 331.222,114.158C329.942,114.627 329.025,115.31 328.47,116.206C327.916,117.059 327.638,118.04 327.638,119.15C327.638,120.302 327.894,121.304 328.406,122.158C328.961,123.011 329.75,123.672 330.774,124.142C331.841,124.611 333.1,124.846 334.55,124.846Z" style="fill:white;fill-rule:nonzero;"/>
            </g>
            <g transform="matrix(2.720384,0,0,2.720384,1787.649756,961.445874)">
                <path d="M303.375,128.622L303.375,96.366L308.239,96.366L308.623,102.51C309.348,101.059 310.265,99.822 311.375,98.798C312.527,97.774 313.892,96.984 315.471,96.43C317.092,95.875 318.927,95.598 320.975,95.598L320.975,101.23L318.991,101.23C317.625,101.23 316.324,101.422 315.087,101.806C313.849,102.147 312.74,102.723 311.759,103.534C310.82,104.344 310.073,105.454 309.519,106.862C309.007,108.227 308.751,109.934 308.751,111.982L308.751,128.622L303.375,128.622Z" style="fill:white;fill-rule:nonzero;"/>
            </g>
            <g transform="matrix(2.720384,0,0,2.720384,1787.649756,961.445874)">
                <path d="M292.352,128.622L292.352,96.366L297.728,96.366L297.728,128.622L292.352,128.622ZM295.04,89.518C293.973,89.518 293.077,89.176 292.352,88.494C291.669,87.768 291.328,86.872 291.328,85.806C291.328,84.739 291.669,83.886 292.352,83.246C293.077,82.563 293.973,82.222 295.04,82.222C296.064,82.222 296.938,82.563 297.664,83.246C298.389,83.886 298.752,84.739 298.752,85.806C298.752,86.872 298.389,87.768 297.664,88.494C296.938,89.176 296.064,89.518 295.04,89.518Z" style="fill:white;fill-rule:nonzero;"/>
            </g>
            <g transform="matrix(2.720384,0,0,2.720384,1787.649756,961.445874)">
                <path d="M255.617,142.702L255.617,96.366L260.481,96.366L260.929,101.614C261.612,100.59 262.487,99.63 263.553,98.734C264.62,97.795 265.9,97.048 267.393,96.494C268.887,95.896 270.593,95.598 272.513,95.598C275.671,95.598 278.401,96.344 280.705,97.838C283.052,99.331 284.865,101.358 286.145,103.918C287.468,106.435 288.129,109.315 288.129,112.558C288.129,115.8 287.468,118.702 286.145,121.262C284.865,123.779 283.052,125.763 280.705,127.214C278.359,128.664 275.607,129.39 272.449,129.39C269.847,129.39 267.543,128.856 265.537,127.79C263.575,126.723 262.06,125.23 260.993,123.31L260.993,142.702L255.617,142.702ZM271.873,124.718C273.964,124.718 275.82,124.206 277.441,123.182C279.063,122.158 280.321,120.75 281.217,118.958C282.156,117.123 282.625,114.968 282.625,112.494C282.625,110.062 282.156,107.928 281.217,106.094C280.321,104.259 279.063,102.83 277.441,101.806C275.82,100.782 273.964,100.27 271.873,100.27C269.74,100.27 267.863,100.782 266.241,101.806C264.62,102.83 263.361,104.259 262.465,106.094C261.569,107.928 261.121,110.062 261.121,112.494C261.121,114.968 261.569,117.123 262.465,118.958C263.361,120.75 264.62,122.158 266.241,123.182C267.863,124.206 269.74,124.718 271.873,124.718Z" style="fill:white;fill-rule:nonzero;"/>
            </g>
            <g transform="matrix(2.720384,0,0,2.720384,1787.649756,961.445874)">
                <path d="M239.492,129.39C236.804,129.39 234.458,128.942 232.452,128.046C230.49,127.15 228.911,125.912 227.716,124.334C226.564,122.712 225.86,120.814 225.604,118.638L231.108,118.638C231.322,119.747 231.77,120.771 232.452,121.71C233.135,122.648 234.052,123.416 235.204,124.014C236.399,124.568 237.85,124.846 239.556,124.846C241.05,124.846 242.287,124.632 243.268,124.206C244.25,123.736 244.975,123.118 245.444,122.35C245.956,121.582 246.212,120.75 246.212,119.854C246.212,118.531 245.892,117.528 245.252,116.846C244.655,116.163 243.759,115.63 242.564,115.246C241.37,114.819 239.919,114.456 238.212,114.158C236.804,113.902 235.418,113.56 234.052,113.134C232.687,112.707 231.471,112.152 230.404,111.47C229.338,110.744 228.484,109.87 227.844,108.846C227.247,107.822 226.948,106.563 226.948,105.07C226.948,103.235 227.418,101.614 228.356,100.206C229.295,98.755 230.639,97.624 232.388,96.814C234.18,96.003 236.25,95.598 238.596,95.598C242.052,95.598 244.847,96.43 246.98,98.094C249.114,99.758 250.372,102.168 250.756,105.326L245.444,105.326C245.231,103.704 244.527,102.446 243.332,101.55C242.18,100.611 240.58,100.142 238.532,100.142C236.527,100.142 234.991,100.547 233.924,101.358C232.9,102.168 232.388,103.235 232.388,104.558C232.388,105.411 232.666,106.179 233.22,106.862C233.818,107.502 234.671,108.056 235.78,108.526C236.932,108.995 238.34,109.379 240.004,109.678C242.138,110.062 244.079,110.574 245.828,111.214C247.578,111.854 248.986,112.814 250.052,114.094C251.162,115.331 251.716,117.102 251.716,119.406C251.716,121.411 251.204,123.16 250.18,124.654C249.199,126.147 247.791,127.32 245.956,128.174C244.122,128.984 241.967,129.39 239.492,129.39Z" style="fill:white;fill-rule:nonzero;"/>
            </g>
            <g transform="matrix(2.720384,0,0,2.720384,1787.649756,961.445874)">
                <path d="M194.422,128.622L194.422,96.366L199.286,96.366L199.542,101.998C200.566,99.992 202.017,98.435 203.894,97.326C205.814,96.174 207.99,95.598 210.422,95.598C212.94,95.598 215.116,96.11 216.95,97.134C218.785,98.115 220.214,99.63 221.238,101.678C222.262,103.683 222.774,106.243 222.774,109.358L222.774,128.622L217.398,128.622L217.398,109.934C217.398,106.691 216.673,104.259 215.222,102.638C213.814,101.016 211.809,100.206 209.206,100.206C207.414,100.206 205.814,100.654 204.406,101.55C202.998,102.403 201.868,103.662 201.014,105.326C200.204,106.947 199.798,108.974 199.798,111.406L199.798,128.622L194.422,128.622Z" style="fill:white;fill-rule:nonzero;"/>
            </g>
            <g transform="matrix(2.720384,0,0,2.720384,1787.649756,961.445874)">
                <rect x="183.582" y="83.822" width="5.376" height="44.8" style="fill:white;fill-rule:nonzero;"/>
            </g>
            <g transform="matrix(2.720384,0,0,2.720384,1787.649756,961.445874)">
                <path d="M468.993,148.862C468.02,148.862 467.167,148.635 466.433,148.182C465.7,147.715 465.133,147.082 464.733,146.282C464.333,145.482 464.133,144.575 464.133,143.562C464.133,142.548 464.333,141.648 464.733,140.862C465.133,140.062 465.7,139.435 466.433,138.982C467.18,138.528 468.04,138.302 469.013,138.302C469.84,138.302 470.56,138.468 471.173,138.802C471.8,139.135 472.28,139.602 472.613,140.202L472.613,134.222L474.293,134.222L474.293,148.622L472.773,148.622L472.633,146.962C472.42,147.295 472.147,147.608 471.813,147.902C471.48,148.182 471.08,148.415 470.613,148.602C470.147,148.775 469.607,148.862 468.993,148.862ZM469.193,147.402C469.86,147.402 470.447,147.242 470.953,146.922C471.46,146.602 471.853,146.162 472.133,145.602C472.413,145.028 472.553,144.355 472.553,143.582C472.553,142.822 472.413,142.155 472.133,141.582C471.853,141.008 471.46,140.562 470.953,140.242C470.447,139.922 469.86,139.762 469.193,139.762C468.54,139.762 467.96,139.922 467.453,140.242C466.947,140.562 466.553,141.008 466.273,141.582C465.993,142.155 465.853,142.822 465.853,143.582C465.853,144.355 465.993,145.028 466.273,145.602C466.553,146.162 466.947,146.602 467.453,146.922C467.96,147.242 468.54,147.402 469.193,147.402Z" style="fill:white;fill-rule:nonzero;"/>
            </g>
            <g transform="matrix(2.720384,0,0,2.720384,1787.649756,961.445874)">
                <path d="M451.606,148.862C450.659,148.862 449.819,148.642 449.086,148.202C448.366,147.762 447.799,147.148 447.386,146.362C446.973,145.562 446.766,144.635 446.766,143.582C446.766,142.515 446.966,141.588 447.366,140.802C447.779,140.015 448.353,139.402 449.086,138.962C449.833,138.522 450.686,138.302 451.646,138.302C452.633,138.302 453.466,138.522 454.146,138.962C454.839,139.402 455.366,139.982 455.726,140.702C456.099,141.408 456.286,142.188 456.286,143.042L456.286,143.462C456.286,143.608 456.279,143.775 456.266,143.962L448.026,143.962L448.026,142.662L454.646,142.662C454.606,141.742 454.299,141.022 453.726,140.502C453.166,139.982 452.459,139.722 451.606,139.722C451.033,139.722 450.499,139.855 450.006,140.122C449.526,140.375 449.139,140.755 448.846,141.262C448.553,141.755 448.406,142.375 448.406,143.122L448.406,143.682C448.406,144.508 448.553,145.202 448.846,145.762C449.153,146.322 449.546,146.742 450.026,147.022C450.519,147.302 451.046,147.442 451.606,147.442C452.313,147.442 452.893,147.288 453.346,146.982C453.813,146.662 454.146,146.235 454.346,145.702L456.006,145.702C455.846,146.302 455.566,146.842 455.166,147.322C454.766,147.802 454.266,148.182 453.666,148.462C453.079,148.728 452.393,148.862 451.606,148.862Z" style="fill:white;fill-rule:nonzero;"/>
            </g>
            <g transform="matrix(2.720384,0,0,2.720384,1787.649756,961.445874)">
                <path d="M437.588,148.622C436.988,148.622 436.468,148.528 436.028,148.342C435.588,148.155 435.248,147.842 435.008,147.402C434.781,146.948 434.668,146.342 434.668,145.582L434.668,139.962L432.908,139.962L432.908,138.542L434.668,138.542L434.888,136.102L436.348,136.102L436.348,138.542L439.268,138.542L439.268,139.962L436.348,139.962L436.348,145.582C436.348,146.208 436.474,146.635 436.728,146.862C436.981,147.075 437.428,147.182 438.068,147.182L439.148,147.182L439.148,148.622L437.588,148.622Z" style="fill:white;fill-rule:nonzero;"/>
            </g>
            <g transform="matrix(2.720384,0,0,2.720384,1787.649756,961.445874)">
                <path d="M422.983,148.622L422.983,138.542L424.663,138.542L424.663,148.622L422.983,148.622ZM423.823,136.402C423.489,136.402 423.21,136.295 422.983,136.082C422.77,135.855 422.663,135.575 422.663,135.242C422.663,134.908 422.77,134.642 422.983,134.442C423.21,134.228 423.489,134.122 423.823,134.122C424.143,134.122 424.416,134.228 424.643,134.442C424.87,134.642 424.983,134.908 424.983,135.242C424.983,135.575 424.87,135.855 424.643,136.082C424.416,136.295 424.143,136.402 423.823,136.402Z" style="fill:white;fill-rule:nonzero;"/>
            </g>
            <g transform="matrix(2.720384,0,0,2.720384,1787.649756,961.445874)">
                <path d="M399.01,148.622L399.01,138.542L400.53,138.542L400.63,139.982C400.95,139.462 401.377,139.055 401.91,138.762C402.457,138.455 403.05,138.302 403.69,138.302C404.21,138.302 404.677,138.375 405.09,138.522C405.517,138.655 405.89,138.868 406.21,139.162C406.53,139.442 406.79,139.802 406.99,140.242C407.337,139.628 407.81,139.155 408.41,138.822C409.024,138.475 409.677,138.302 410.37,138.302C411.144,138.302 411.817,138.462 412.39,138.782C412.977,139.088 413.424,139.562 413.73,140.202C414.05,140.828 414.21,141.628 414.21,142.602L414.21,148.622L412.55,148.622L412.55,142.782C412.55,141.768 412.344,141.008 411.93,140.502C411.517,139.995 410.937,139.742 410.19,139.742C409.67,139.742 409.204,139.882 408.79,140.162C408.377,140.428 408.05,140.822 407.81,141.342C407.57,141.862 407.45,142.502 407.45,143.262L407.45,148.622L405.77,148.622L405.77,142.782C405.77,141.768 405.564,141.008 405.15,140.502C404.737,139.995 404.15,139.742 403.39,139.742C402.884,139.742 402.424,139.882 402.01,140.162C401.61,140.428 401.29,140.822 401.05,141.342C400.81,141.862 400.69,142.502 400.69,143.262L400.69,148.622L399.01,148.622Z" style="fill:white;fill-rule:nonzero;"/>
            </g>
            <g transform="matrix(2.720384,0,0,2.720384,1787.649756,961.445874)">
                <path d="M388.366,148.622L388.366,138.542L390.046,138.542L390.046,148.622L388.366,148.622ZM389.206,136.402C388.872,136.402 388.592,136.295 388.366,136.082C388.152,135.855 388.046,135.575 388.046,135.242C388.046,134.908 388.152,134.642 388.366,134.442C388.592,134.228 388.872,134.122 389.206,134.122C389.526,134.122 389.799,134.228 390.026,134.442C390.252,134.642 390.366,134.908 390.366,135.242C390.366,135.575 390.252,135.855 390.026,136.082C389.799,136.295 389.526,136.402 389.206,136.402Z" style="fill:white;fill-rule:nonzero;"/>
            </g>
            <g transform="matrix(2.720384,0,0,2.720384,1787.649756,961.445874)">
                <path d="M371.759,148.622L371.759,134.622L373.439,134.622L373.439,147.282L379.959,147.282L379.959,148.622L371.759,148.622Z" style="fill:white;fill-rule:nonzero;"/>
            </g>
            <g transform="matrix(2.720384,0,0,2.720384,1787.649756,961.445874)">
                <path d="M348.107,148.862C347.267,148.862 346.534,148.722 345.907,148.442C345.294,148.162 344.801,147.775 344.427,147.282C344.067,146.775 343.847,146.182 343.767,145.502L345.487,145.502C345.554,145.848 345.694,146.168 345.907,146.462C346.121,146.755 346.407,146.995 346.767,147.182C347.141,147.355 347.594,147.442 348.127,147.442C348.594,147.442 348.981,147.375 349.287,147.242C349.594,147.095 349.821,146.902 349.967,146.662C350.127,146.422 350.207,146.162 350.207,145.882C350.207,145.468 350.107,145.155 349.907,144.942C349.721,144.728 349.441,144.562 349.067,144.442C348.694,144.308 348.241,144.195 347.707,144.102C347.267,144.022 346.834,143.915 346.407,143.782C345.981,143.648 345.601,143.475 345.267,143.262C344.934,143.035 344.667,142.762 344.467,142.442C344.281,142.122 344.187,141.728 344.187,141.262C344.187,140.688 344.334,140.182 344.627,139.742C344.921,139.288 345.341,138.935 345.887,138.682C346.447,138.428 347.094,138.302 347.827,138.302C348.907,138.302 349.781,138.562 350.447,139.082C351.114,139.602 351.507,140.355 351.627,141.342L349.967,141.342C349.901,140.835 349.681,140.442 349.307,140.162C348.947,139.868 348.447,139.722 347.807,139.722C347.181,139.722 346.701,139.848 346.367,140.102C346.047,140.355 345.887,140.688 345.887,141.102C345.887,141.368 345.974,141.608 346.147,141.822C346.334,142.022 346.601,142.195 346.947,142.342C347.307,142.488 347.747,142.608 348.267,142.702C348.934,142.822 349.541,142.982 350.087,143.182C350.634,143.382 351.074,143.682 351.407,144.082C351.754,144.468 351.927,145.022 351.927,145.742C351.927,146.368 351.767,146.915 351.447,147.382C351.141,147.848 350.701,148.215 350.127,148.482C349.554,148.735 348.881,148.862 348.107,148.862Z" style="fill:white;fill-rule:nonzero;"/>
            </g>
            <g transform="matrix(2.720384,0,0,2.720384,1787.649756,961.445874)">
                <path d="M334.435,148.622C333.835,148.622 333.315,148.528 332.875,148.342C332.435,148.155 332.095,147.842 331.855,147.402C331.629,146.948 331.515,146.342 331.515,145.582L331.515,139.962L329.755,139.962L329.755,138.542L331.515,138.542L331.735,136.102L333.195,136.102L333.195,138.542L336.115,138.542L336.115,139.962L333.195,139.962L333.195,145.582C333.195,146.208 333.322,146.635 333.575,146.862C333.829,147.075 334.275,147.182 334.915,147.182L335.995,147.182L335.995,148.622L334.435,148.622Z" style="fill:white;fill-rule:nonzero;"/>
            </g>
            <g transform="matrix(2.720384,0,0,2.720384,1787.649756,961.445874)">
                <path d="M312.991,148.622L312.991,138.542L314.511,138.542L314.591,140.302C314.911,139.675 315.364,139.188 315.951,138.842C316.551,138.482 317.231,138.302 317.991,138.302C318.777,138.302 319.457,138.462 320.031,138.782C320.604,139.088 321.051,139.562 321.371,140.202C321.691,140.828 321.851,141.628 321.851,142.602L321.851,148.622L320.171,148.622L320.171,142.782C320.171,141.768 319.944,141.008 319.491,140.502C319.051,139.995 318.424,139.742 317.611,139.742C317.051,139.742 316.551,139.882 316.111,140.162C315.671,140.428 315.317,140.822 315.051,141.342C314.797,141.848 314.671,142.482 314.671,143.242L314.671,148.622L312.991,148.622Z" style="fill:white;fill-rule:nonzero;"/>
            </g>
            <g transform="matrix(2.720384,0,0,2.720384,1787.649756,961.445874)">
                <path d="M302.346,148.622L302.346,138.542L304.026,138.542L304.026,148.622L302.346,148.622ZM303.186,136.402C302.853,136.402 302.573,136.295 302.346,136.082C302.133,135.855 302.026,135.575 302.026,135.242C302.026,134.908 302.133,134.642 302.346,134.442C302.573,134.228 302.853,134.122 303.186,134.122C303.506,134.122 303.779,134.228 304.006,134.442C304.233,134.642 304.346,134.908 304.346,135.242C304.346,135.575 304.233,135.855 304.006,136.082C303.779,136.295 303.506,136.402 303.186,136.402Z" style="fill:white;fill-rule:nonzero;"/>
            </g>
            <g transform="matrix(2.720384,0,0,2.720384,1787.649756,961.445874)">
                <path d="M288.784,148.622L288.784,138.542L290.304,138.542L290.424,140.462C290.65,140.008 290.937,139.622 291.284,139.302C291.644,138.982 292.07,138.735 292.564,138.562C293.07,138.388 293.644,138.302 294.284,138.302L294.284,140.062L293.664,140.062C293.237,140.062 292.83,140.122 292.444,140.242C292.057,140.348 291.71,140.528 291.404,140.782C291.11,141.035 290.877,141.382 290.704,141.822C290.544,142.248 290.464,142.782 290.464,143.422L290.464,148.622L288.784,148.622Z" style="fill:white;fill-rule:nonzero;"/>
            </g>
            <g transform="matrix(2.720384,0,0,2.720384,1787.649756,961.445874)">
                <path d="M271.282,148.622L271.282,134.622L275.842,134.622C276.949,134.622 277.856,134.808 278.562,135.182C279.282,135.542 279.809,136.028 280.142,136.642C280.489,137.255 280.662,137.955 280.662,138.742C280.662,139.502 280.489,140.195 280.142,140.822C279.809,141.435 279.289,141.928 278.582,142.302C277.876,142.675 276.962,142.862 275.842,142.862L272.962,142.862L272.962,148.622L271.282,148.622ZM272.962,141.442L275.822,141.442C276.942,141.442 277.742,141.195 278.222,140.702C278.702,140.208 278.942,139.555 278.942,138.742C278.942,137.875 278.702,137.208 278.222,136.742C277.742,136.262 276.942,136.022 275.822,136.022L272.962,136.022L272.962,141.442Z" style="fill:white;fill-rule:nonzero;"/>
            </g>
        </g>
    </g>
</svg>
