<?xml version="1.0" encoding="UTF-8" standalone="no"?>
<!DOCTYPE svg PUBLIC "-//W3C//DTD SVG 1.1//EN" "http://www.w3.org/Graphics/SVG/1.1/DTD/svg11.dtd">
<svg width="100%" height="100%" viewBox="0 0 845 209" version="1.1" xmlns="http://www.w3.org/2000/svg" xmlns:xlink="http://www.w3.org/1999/xlink" xml:space="preserve" xmlns:serif="http://www.serif.com/" style="fill-rule:evenodd;clip-rule:evenodd;stroke-linejoin:round;stroke-miterlimit:2;">
    <g transform="matrix(1,0,0,1,-1376.000477,-25241.81221)">
        <g transform="matrix(1,0,0,1,11389.55033,-0.386114)">
            <g id="PRINTBUKA-LOGO.png" transform="matrix(0.826495,0,0,0.826495,-10014.436018,25241.244434)">
                <path d="M118.15,178.144C117.649,178.636 112.693,182.386 112.495,182.493C110.386,183.63 110.721,184.002 110.344,184.319C110.136,184.494 109.818,184.495 109.602,184.661C109.454,184.775 109.47,185.065 109.294,185.13C109.126,185.192 108.949,184.901 108.781,184.964C108.603,185.031 108.624,185.333 108.468,185.441C108.086,185.705 108.024,185.582 103.318,188.126C102.94,188.33 102.806,187.993 98.339,190.138C97.878,190.359 88.247,193.497 85.508,193.664C80.967,193.94 80.975,193.786 76.474,194.327C75.68,194.423 75.686,194.247 66.492,193.677C65.535,193.617 58.906,192.235 58.685,192.119C54.782,190.084 53.904,190.796 46.676,187.157C46.26,186.948 42.344,184.977 41.567,184.382C41.411,184.262 41.403,184.012 41.258,183.88C41.047,183.688 40.738,183.628 40.528,183.435C40.405,183.322 40.458,183.004 40.291,182.992C40.2,182.986 38.94,183.587 38.915,183.645C38.897,183.688 39.029,184.469 39.03,189.5C39.037,246.012 39.015,246.016 38.778,246.641C38.352,247.763 37.923,247.603 20.5,247.603C2.208,247.603 2.132,247.653 1.668,247.298C0.996,246.785 1.075,246.573 1.075,204.5C1.075,69.805 1.062,69.803 1.184,69.381C1.58,68.012 2.132,68.218 17.5,68.218C37.754,68.218 37.857,68.155 38.399,68.616C39.65,69.68 38.401,78.046 39.167,78.802C40.192,79.814 40.448,79.392 41.411,78.339C41.53,78.209 41.533,77.961 41.696,77.892C41.854,77.826 42.038,78.074 42.197,78.009C42.336,77.952 42.13,77.693 43.693,76.86C48.653,74.216 50.77,73.462 51.413,73.232C51.578,73.174 53.013,72.662 53.42,72.369C53.577,72.256 53.622,72.004 53.802,71.933C53.953,71.872 54.13,72.083 54.282,72.024C54.429,71.968 54.418,71.711 54.559,71.642C54.854,71.496 54.943,71.805 58.519,70.559C58.759,70.475 58.783,70.571 61.543,69.625C62.788,69.198 65.298,69.417 67.597,68.825C71.165,67.907 80.844,67.923 84.398,68.84C86.561,69.398 88.066,69.172 89.478,69.569C91.469,70.128 91.441,70.131 93.503,70.488C93.812,70.542 94.135,70.577 94.415,70.718C94.545,70.784 94.529,71.038 94.671,71.074C94.892,71.131 95.122,70.914 95.346,70.959C95.76,71.041 96.116,71.306 96.515,71.442C96.81,71.543 97.149,71.518 97.422,71.668C97.57,71.749 97.541,72.028 97.698,72.09C97.852,72.15 98.026,71.906 98.181,71.966C98.455,72.072 98.203,72.509 101.377,73.788C104.874,75.197 104.891,75.127 106.31,75.861C106.455,75.936 106.504,76.14 106.649,76.214C107.178,76.483 107.78,76.592 108.303,76.872C108.454,76.952 108.48,77.181 108.626,77.271C108.875,77.425 109.212,77.41 109.45,77.581C109.615,77.699 109.616,77.968 109.773,78.095C110.652,78.805 110.753,78.616 111.586,79.4C112.363,80.133 116.078,82.648 116.29,82.812C116.843,83.241 116.903,83.113 117.456,83.564C117.63,83.706 117.633,83.997 117.806,84.141C118.01,84.311 118.34,84.283 118.534,84.464C118.713,84.63 118.685,84.948 118.858,85.12C119.386,85.647 119.672,85.232 120.112,85.841C120.307,86.111 120.143,86.34 121.235,87.691C123.226,90.152 123.947,90.234 125.163,91.732C126.105,92.893 126.001,92.924 126.821,94.303C126.966,94.548 128.018,95.627 128.469,96.519C128.49,96.56 131.625,101.657 132.139,102.686C134.747,107.908 134.444,108.005 136.383,113.542C137.227,115.949 136.766,116.03 137.476,118.508C138.456,121.93 137.608,122.044 138.435,125.518C139.642,130.581 138.394,136.487 138.197,137.419C138.036,138.182 138.205,143.563 135.49,151.496C135.303,152.042 133.206,158.172 133.123,158.311C133.04,158.452 132.822,158.475 132.736,158.614C132.579,158.869 132.583,159.203 132.419,159.454C132.318,159.609 132.052,159.616 131.973,159.784C131.914,159.906 132.134,160.054 132.076,160.177C132.01,160.317 131.706,160.078 130.868,161.694C129.622,164.095 129.742,164.129 128.198,166.311C127.225,167.685 127.439,167.779 127.138,168.296C127.048,168.452 126.814,168.484 126.72,168.637C126.568,168.883 126.604,169.225 126.425,169.451C126.287,169.625 125.976,169.585 125.834,169.755C125.657,169.966 125.706,170.314 125.527,170.524C125.375,170.7 125.067,170.674 124.903,170.84C124.719,171.025 124.708,171.337 124.532,171.53C124.419,171.654 124.33,171.518 122.97,172.938C121.485,174.49 121.687,174.649 120.157,176.155C119.484,176.819 119.501,176.804 118.15,178.144L97.852,153.851C98.875,152.819 98.9,152.884 99.824,151.723C100.507,150.865 100.3,150.768 100.908,149.838C101.03,149.651 101.317,149.637 101.472,149.476C103.824,147.02 103.383,146.737 104.859,143.674C105.841,141.637 105.923,141.684 106.343,139.471C106.75,137.328 107.483,137.394 107.306,128.504C107.244,125.347 105.376,118.848 103.09,114.745C102.805,114.233 101.832,113.574 101.341,112.615C101.015,111.979 100.919,112.075 100.442,111.55C100.268,111.359 100.25,111.056 100.07,110.871C99.909,110.705 99.618,110.707 99.46,110.537C99.225,110.282 98.286,108.88 98.188,108.733C97.41,107.57 97.189,107.814 94.422,105.602C94.337,105.534 93.644,104.98 93.319,104.81C90.782,103.484 90.738,103.578 90.531,103.441C90.384,103.343 90.402,103.062 90.236,103C90.062,102.934 89.868,103.179 89.69,103.124C89.534,103.075 89.531,102.819 89.39,102.737C89.128,102.583 88.813,102.547 88.529,102.441C87.879,102.201 87.968,102.093 87.38,101.748C83.102,99.239 69.746,98.636 63.67,101.858C60.308,103.641 60.466,103.897 60.166,104.034C60.04,104.092 59.891,103.867 59.765,103.924C59.593,104.002 59.575,104.263 59.421,104.371C59.187,104.537 58.874,104.561 58.636,104.721C54.274,107.662 52.611,109.752 52.187,110.285C51.496,111.153 51.71,111.25 51.103,112.166C50.979,112.353 50.694,112.371 50.538,112.533C47.69,115.466 48.105,115.748 46.477,119.489C44.265,124.569 45.012,125.033 44.431,127.481C43.492,131.438 43.801,131.474 44.566,135.49C45.129,138.443 44.231,140.602 49.795,149.321C49.879,149.453 51.361,151.127 51.562,151.442C51.944,152.041 52.045,151.922 52.547,152.456C52.828,152.754 53.749,154.091 53.849,154.236C54.993,155.895 56.817,156.463 60.312,158.819C62.667,160.407 64.902,160.629 65.348,160.868C65.471,160.934 65.478,161.149 65.609,161.194C67.117,161.705 67.159,161.501 68.638,162.151C69.438,162.503 71.895,163.583 79.542,162.97C81.641,162.801 88.278,160.304 88.393,160.25C88.531,160.184 88.552,159.966 88.689,159.899C89.229,159.633 89.845,159.541 90.383,159.27C90.533,159.194 90.556,158.96 90.705,158.882C92.466,157.949 92.513,158.106 94.28,157.144C95.402,156.532 95.281,156.394 97.852,153.851L118.15,178.144Z" style="fill:rgb(0,174,238);fill-opacity:1;"/>
                <path d="M490.533,153.51C490.802,149.517 490.668,149.522 490.668,16.5C490.668,11.534 489.975,10.042 493.491,10.017C507.459,9.916 507.66,9.64 508.516,10.485C509.003,10.966 508.949,11.097 508.949,79.5C508.949,89.557 508.42,89.611 508.799,90.396C508.823,90.446 510.112,91.062 510.169,91.05C510.721,90.939 510.02,90.251 514.526,85.525C516.19,83.781 525.975,73.518 540.397,70.084C571.14,62.764 594.909,83.023 603.722,104.407C611.648,123.641 608.694,138.354 608.282,141.472C604.954,166.67 587.99,181.428 580.213,186.039C553.234,202.036 526.459,191.251 512.404,174.581C510.769,172.642 510.494,171.274 509.518,171.564C508.511,171.863 509.017,172.31 509.017,179.5C509.018,192.657 509.29,193.361 507.56,193.76C507.126,193.861 492.592,193.812 492.459,193.793C490.025,193.447 490.738,189.96 490.5,187.497C490.962,187.308 496.083,185.216 496.276,185.112C497.428,184.493 497.076,182.805 497.033,182.6C496.953,182.218 494.121,170.463 493.866,169.408C491.202,158.35 491.051,158.399 490.882,157.425C490.362,154.425 490.143,154.49 490.133,154.228C490.123,153.954 490.542,153.783 490.533,153.51L525.031,166.981C528.039,169.695 527.932,169.8 532.351,172.742C539.539,177.527 563.211,186.518 583.349,164.365C603.905,141.754 598.582,97.049 564.5,85.5C546.359,79.353 522.238,88.918 513.441,113.478C506.582,132.629 511.405,153.158 524.481,166.519C524.648,166.69 524.864,166.81 525.031,166.981L490.533,153.51Z" style="fill:rgb(26,26,26);fill-opacity:1;"/>
                <path d="M326.027,109.015C325.014,110.097 322.188,112.152 318.678,119.581C317.599,121.866 317.734,121.965 317.734,152.5C317.734,192.613 317.792,192.73 317.291,193.318C316.721,193.985 316.531,193.913 283.5,193.912C280.756,193.912 279.546,194.166 279.454,191.502C279.445,191.249 279.451,82.02 279.452,72.5C279.452,71.169 279.064,68.786 281.513,68.664C281.835,68.648 311.287,68.649 311.488,68.662C314.083,68.835 313.629,70.11 313.629,79.5C313.629,83.447 313.588,83.412 313.405,86.512C313.395,86.686 313.288,88.497 314.47,88.406C315.872,88.298 318.964,76.801 340.498,69.495C343.689,68.413 370.432,60.397 385.631,73.341C401.416,86.783 399.91,102.336 399.91,134.5C399.91,192.735 399.972,192.878 399.425,193.425C398.892,193.959 398.755,193.915 365.5,193.912C362.794,193.911 361.828,194.205 361.789,191.492C361.543,174.496 362.377,125.041 361.265,116.534C358.63,96.388 340.37,96.708 328.625,106.651C327.925,107.243 327.954,107.239 326.027,109.015Z" style="fill:rgb(26,26,26);fill-opacity:1;"/>
                <path d="M488.048,69.682C488.116,71.359 488.212,93.181 488.051,97.323C487.166,98.551 487.032,98.495 485.5,98.509C478.65,98.572 464.174,98.333 463.597,98.696C463.401,98.82 463.401,99.123 463.253,99.301C462.815,99.827 462.79,99.817 462.773,100.517C462.538,110.19 462.753,141.901 462.777,145.499C462.799,148.683 462.888,148.656 463.329,150.548C463.475,151.174 463.434,151.845 463.648,152.452C463.702,152.605 464.04,152.519 464.08,152.676C464.134,152.895 463.8,153.103 463.865,153.319C463.918,153.495 464.247,153.426 464.352,153.577C464.522,153.82 464.472,154.172 464.633,154.42C464.74,154.584 464.994,154.6 465.118,154.752C465.295,154.968 465.371,155.25 465.509,155.491C465.976,156.303 468.605,158.089 471.515,158.274C479.36,158.772 483.068,156.781 487.428,155.303C487.596,155.246 489.23,154.692 489.497,154.491C489.784,154.276 489.576,154.148 489.836,153.901C490.132,153.62 490.217,153.809 490.533,153.51C490.542,153.783 490.123,153.954 490.133,154.228C490.143,154.49 490.362,154.425 490.882,157.425C491.051,158.399 491.202,158.35 493.866,169.408C494.121,170.463 496.953,182.218 497.033,182.6C497.076,182.805 497.428,184.493 496.276,185.112C496.083,185.216 490.962,187.308 490.5,187.497C484.035,190.291 479.414,190.739 477.598,191.729C475.183,193.046 474.967,192.279 472.357,193.085C470.925,193.528 455.336,194.946 448.371,192.948C447.757,192.772 444.773,192.392 444.583,192.302C444.442,192.236 444.458,191.976 444.312,191.923C444.156,191.866 443.98,192.088 443.824,192.028C443.687,191.975 443.914,191.672 442.319,190.981C439.792,189.887 439.74,190.072 437.37,188.73C436.034,187.974 435.977,188.106 434.85,187.11C434.302,186.625 434.331,186.638 433.742,186.156C433.197,185.711 433.124,185.848 432.606,185.36C432.429,185.194 432.456,184.88 432.285,184.708C432.118,184.539 431.805,184.57 431.646,184.394C431.528,184.262 431.759,184.131 430.448,182.542C430.083,182.1 428.515,180.199 426.895,176.323C426.786,176.062 425.418,171.829 425.289,171.582C425.222,171.455 425.003,171.437 424.967,171.298C424.912,171.09 425.105,170.866 425.048,170.658C425.012,170.53 424.776,170.545 424.725,170.422C423.494,167.482 424.423,100.96 424.024,99.621C423.635,98.316 422.499,98.495 411.5,98.51C409.131,98.513 408.256,98.934 408.101,96.548C408.086,96.315 408.081,70.655 408.102,70.451C408.36,67.909 410.527,68.519 412.5,68.521C422.996,68.532 423.341,68.652 423.756,67.668C424.194,66.63 424.091,66.578 424.1,32.499C424.101,29.942 423.94,29.131 426.479,29.072C426.538,29.071 460.311,29.067 460.534,29.075C463.259,29.177 462.776,30.412 462.776,39.5C462.776,67.205 462.767,67.216 462.84,67.406C462.899,67.562 463.135,67.575 463.24,67.704C463.506,68.032 463.378,68.441 464.498,68.516C466.22,68.63 486.605,68.279 487.356,68.743C487.435,68.792 487.407,68.812 488.048,69.682Z" style="fill:rgb(236,49,54);fill-opacity:1;"/>
                <path d="M929.046,177.025C925.523,180.098 916.984,188.731 897.576,192.798C896.216,193.083 890.167,193.665 889.522,193.727C875.029,195.121 849.971,188.205 844.607,162.479C839.375,137.387 860.586,121.619 883.463,118.251C884.181,118.145 884.182,118.244 892.503,117.539C895.233,117.308 910.361,117.274 923.421,120.798C929.794,122.517 931.235,123.717 932.123,123.035C932.762,122.544 932.64,121.343 932.603,117.5C932.585,115.578 933.842,92.761 913.42,83.686C905.654,80.235 892.659,79.233 879.675,83.989C867.026,88.622 859.254,94.721 858.561,94.804C857.187,94.968 856.849,94.129 854.856,90.314C852.663,86.117 851.634,84.991 854.824,83C879.105,67.843 894.093,68.23 906.461,68.919C910.005,69.116 921.982,71.399 929.361,76.704C951.015,92.27 948.91,111.496 948.91,136.5C948.91,174.29 948.764,174.47 949.92,176.249C951.75,179.065 954.382,177.535 954.765,180.469C954.797,180.715 954.818,191.204 954.748,191.547C954.178,194.367 944.931,193.604 942.447,192.624C936.256,190.181 934.966,184.96 934.886,175.477C934.864,172.791 935.396,172.453 934.31,171.937C933.366,171.488 933.462,172.119 931.426,174.433C930.879,175.054 929.237,176.819 929.046,177.025L904.529,128.004C892.015,127.337 884.131,128.199 874.486,132.472C848.284,144.08 859.059,179.639 886.528,181.168C913.857,182.689 930.034,165.156 932.095,157.397C932.917,154.301 932.802,135.702 932.231,134.663C931.345,133.051 918.201,128.67 904.529,128.004L929.046,177.025Z" style="fill:rgb(25,25,25);fill-opacity:1;"/>
                <path d="M190.081,125.172C187.112,128.995 187.331,130.89 186.378,134.461C185.509,137.715 185.587,137.757 185.587,161.5C185.587,192.784 185.629,192.857 185.286,193.328C184.767,194.039 184.54,193.952 151.5,193.952C148.051,193.952 146.449,194.62 146.411,191.502C146.39,189.8 146.414,189.81 146.412,73.5C146.412,73.114 146.389,69.538 146.418,69.478C146.522,69.266 146.893,69.333 147.05,69.156C147.252,68.929 147.181,68.495 147.437,68.33C147.651,68.192 183.955,68.183 184.563,68.333C185.917,68.668 185.589,70.525 185.58,74.5C185.572,78.074 185.006,80.558 186.482,80.433C187,80.389 188.014,79.177 188.124,79.045C188.176,78.984 188.448,78.118 189.555,77.585C191.64,76.583 193.952,74.899 194.57,74.627C195.127,74.383 201.307,71.667 201.538,71.604C203.086,71.179 203.044,71.127 204.535,70.605C204.847,70.496 204.91,70.787 208.543,69.634C209.843,69.222 212.204,69.428 214.599,68.846C218.608,67.872 223.869,68.197 224.365,68.646C224.999,69.22 224.87,69.411 224.88,111.5C224.881,114.597 225.6,115.981 222.496,115.895C217.977,115.769 214.101,114.43 210.425,115.146C207.514,115.714 207.512,115.555 204.55,115.933C203.471,116.07 197.042,118.434 195.59,119.62C195.504,119.691 194.908,120.177 194.537,120.542C194.325,120.751 193.717,121.771 192.449,122.434C190.782,123.307 191.112,123.628 190.081,125.172Z" style="fill:rgb(235,37,142);fill-opacity:1;"/>
                <path d="M775.98,111.994C782.14,106.416 805.049,83.402 810.355,78.346C819.392,69.734 819.104,68.611 823.5,68.598C835.491,68.561 835.475,68.387 836.515,68.441C838.269,68.532 838.065,69.511 836.76,70.683C835.3,71.994 791.239,116.32 787.287,120.296C784.882,122.716 787.568,124.352 790.019,127.848C795.375,135.486 795.651,135.256 801.015,142.86C801.32,143.292 804.018,147.116 804.851,148.241C817.774,165.694 817.673,165.765 818.818,167.267C819.332,167.94 823.895,173.927 825.14,175.762C829.48,182.166 829.77,181.939 831.046,183.822C835.384,190.219 837.009,191.654 837.407,192.528C838.167,194.198 835.678,194.026 835.485,194.013C829.314,193.587 821.979,194.428 820.583,193.376C819.285,192.399 803.91,170.749 799.747,165.316C798.901,164.212 776.019,132.633 775.543,132.434C773.908,131.752 772.605,133.419 771.487,134.486C767.738,138.067 762.97,142.509 762.225,143.202C751.373,153.312 748.433,155.414 748,157.554C747.899,158.053 747.978,190.33 747.951,191.522C747.883,194.411 746.567,193.905 738.5,193.905C733.6,193.905 731.766,194.683 731.928,190.499C732.123,185.491 731.93,23.146 732.027,22.422C732.329,20.179 733.68,20.622 740.5,20.622C746.5,20.622 748.013,19.992 748.021,23.503C748.044,32.542 748.289,131.789 747.881,136.483C747.713,138.417 748.823,138.815 749.695,137.868C753.187,134.076 771.158,116.978 775.98,111.994Z" style="fill:rgb(26,26,26);fill-opacity:1;"/>
                <path d="M697.026,176.051C675.934,197.224 640.684,199.791 625.879,182.183C617.491,172.206 616.011,157.752 615.416,154.514C614.671,150.465 614.775,137.769 614.776,73.5C614.776,70.087 614.079,68.678 617.502,68.654C629.228,68.573 629.298,68.427 630.139,68.988C630.935,69.519 630.834,69.777 630.834,97.5C630.834,144.391 630.035,154.345 636.126,165.69C643.508,179.437 654.167,179.888 665.455,179.09C667.768,178.926 675.746,176.77 680.336,174.191C697.608,164.487 704.557,147.173 704.661,143.504C704.79,138.954 704.443,70.643 704.855,69.648C705.321,68.522 705.69,68.634 717.499,68.654C721.442,68.661 720.756,70.311 720.756,75.5C720.756,173.77 720.685,173.825 721.327,175.565C722.713,179.319 726.362,177.332 726.457,181.501C726.709,192.526 726.203,192.807 725.378,193.268C723.087,194.545 706.415,195.808 706.264,178.502C706.151,165.602 707.022,164.634 705.558,164.698C704.652,164.738 704.452,167.389 700.29,172.328C699.943,172.741 697.288,175.753 697.026,176.051Z" style="fill:rgb(26,26,26);fill-opacity:1;"/>
                <path d="M256.5,67.995C265.114,68.198 265.082,67.891 269.537,68.07C272.007,68.169 271.733,69.013 271.731,71.5C271.731,106.833 271.731,142.167 271.731,177.5C271.731,192.885 271.924,193.383 270.633,193.816C270.165,193.973 270.183,193.946 241.5,193.946C234.502,193.946 232.999,194.507 232.968,191.493C232.918,186.534 233.037,186.539 233.037,129.5C233.037,69.173 232.977,69.028 233.51,68.51C234.124,67.913 234.271,67.995 256.5,67.995Z" style="fill:rgb(254,213,38);fill-opacity:1;"/>
                <path d="M281.011,31.471C280.746,38.074 280.085,44.7 270.497,53.496C269.105,54.773 268.885,54.439 267.51,55.514C267.346,55.643 267.3,55.896 267.122,56.003C266.645,56.291 266.077,56.399 265.591,56.672C265.446,56.753 265.417,56.987 265.261,57.048C265.104,57.109 264.916,56.935 264.759,56.995C264.605,57.054 264.575,57.282 264.433,57.366C264.173,57.519 263.846,57.536 263.585,57.688C263.451,57.766 263.428,57.991 263.281,58.037C263.095,58.096 262.887,57.911 262.702,57.969C262.562,58.013 262.554,58.243 262.423,58.307C262.127,58.45 262.07,58.227 258.453,59.351C256.738,59.884 253.227,59.872 252.513,59.895C252.665,59.414 252.947,58.981 253.099,58.5C253.3,57.865 253.271,57.848 253.271,40.5C253.271,33.435 252.752,32.003 255.517,31.942C265.009,31.733 264.977,32.004 274.5,32.004C277.815,32.004 277.897,32.609 281.011,31.471Z" style="fill:rgb(254,212,38);fill-opacity:1;"/>
                <path d="M250.435,1.205C250.657,3.528 250.957,27.64 250.333,28.389C249.465,29.431 247.442,29.027 226.499,29.091C224.706,29.096 224.702,28.976 222.987,29.541C223.18,23.343 223.473,23.384 225.558,17.526C226.785,14.076 231.792,9.079 232.438,8.435C234.549,6.327 234.692,6.534 237.302,5.139C237.758,4.895 238.706,3.918 239.547,3.586C239.829,3.475 240.147,3.446 240.409,3.292C240.544,3.213 240.538,2.957 240.689,2.916C240.89,2.86 241.101,3.108 241.301,3.048C241.452,3.002 241.421,2.724 241.561,2.65C241.852,2.498 241.923,2.811 245.536,1.608C246.458,1.3 250.042,1.215 250.435,1.205Z" style="fill:rgb(0,175,239);fill-opacity:1;"/>
                <path d="M252.549,1.154C253.344,1.193 258.781,1.46 262.36,2.848C262.495,2.9 262.499,3.129 262.632,3.186C263.194,3.428 263.83,3.469 264.388,3.721C264.487,3.765 264.376,3.928 265.515,4.476C266.991,5.187 269.384,6.974 269.705,7.213C273.738,10.225 273.387,10.561 276.529,14.479C276.659,14.64 276.906,14.69 277.013,14.867C277.564,15.781 280.67,22.599 280.887,26.47C280.901,26.705 280.889,26.687 280.904,29.407C279.289,29.01 279.281,29.114 270.5,29.114C254.415,29.114 254.225,29.226 253.547,28.465C252.758,27.581 253.512,4.023 253.091,2.5C252.961,2.034 252.678,1.62 252.549,1.154Z" style="fill:rgb(235,38,143);fill-opacity:1;"/>
                <path d="M250.435,1.205C251.139,1.188 251.844,1.171 252.549,1.154C252.678,1.62 252.961,2.034 253.091,2.5C253.512,4.023 252.758,27.581 253.547,28.465C254.225,29.226 254.415,29.114 270.5,29.114C279.281,29.114 279.289,29.01 280.904,29.407C280.94,30.095 280.975,30.783 281.011,31.471C277.897,32.609 277.815,32.004 274.5,32.004C264.977,32.004 265.009,31.733 255.517,31.942C252.752,32.003 253.271,33.435 253.271,40.5C253.271,57.848 253.3,57.865 253.099,58.5C252.947,58.981 252.665,59.414 252.513,59.895C251.828,59.791 251.142,59.687 250.457,59.583C250.55,58.535 250.673,58.564 250.642,57.494C250.497,52.395 250.983,33.583 250.312,32.635C249.121,30.953 231.214,32.717 223.23,31.63C223.149,30.933 223.068,30.237 222.987,29.541C224.702,28.976 224.706,29.096 226.499,29.091C247.442,29.027 249.465,29.431 250.333,28.389C250.957,27.64 250.657,3.528 250.435,1.205Z" style="fill:rgb(253,253,250);fill-opacity:1;"/>
            </g>
        </g>
    </g>
</svg>
